<?xml version="1.0" encoding="UTF-8" standalone="no"?>
<!-- Uploaded to: SVG Repo, www.svgrepo.com, Transformed by: SVG Repo Mixer Tools -->

<svg
   width="256px"
   height="256px"
   viewBox="0 0 1024 1024"
   class="icon"
   version="1.1"
   fill="#000000"
   id="svg10"
   sodipodi:docname="Icon.svg"
   inkscape:version="1.4.3 (0d15f75042, 2025-12-25)"
   xmlns:inkscape="http://www.inkscape.org/namespaces/inkscape"
   xmlns:sodipodi="http://sodipodi.sourceforge.net/DTD/sodipodi-0.dtd"
   xmlns="http://www.w3.org/2000/svg"
   xmlns:svg="http://www.w3.org/2000/svg">
  <defs
     id="defs10" />
  <sodipodi:namedview
     id="namedview10"
     pagecolor="#505050"
     bordercolor="#eeeeee"
     borderopacity="1"
     inkscape:showpageshadow="0"
     inkscape:pageopacity="0"
     inkscape:pagecheckerboard="0"
     inkscape:deskcolor="#505050"
     inkscape:zoom="3.3164062"
     inkscape:cx="84.277974"
     inkscape:cy="107.19435"
     inkscape:window-width="1920"
     inkscape:window-height="1052"
     inkscape:window-x="0"
     inkscape:window-y="0"
     inkscape:window-maximized="1"
     inkscape:current-layer="svg10" />
  <g
     id="SVGRepo_bgCarrier"
     stroke-width="0" />
  <g
     id="SVGRepo_tracerCarrier"
     stroke-linecap="round"
     stroke-linejoin="round" />
  <g
     id="SVGRepo_iconCarrier"
     transform="matrix(1.2293453,0,0,1.2293453,-117.44358,-64.73227)">
    <path
       d="m 822.8,466.5 c 0.1,0.3 0.2,0.5 0.3,0.8 -0.1,-0.2 -0.2,-0.5 -0.3,-0.8 z M 593.4,665.2 c 0,-0.1 -0.1,-0.2 -0.1,-0.3 0,0.1 0.1,0.2 0.1,0.3 z M 834.7,508 c 0.1,0.4 0.2,0.9 0.3,1.3 -0.1,-0.4 -0.2,-0.8 -0.3,-1.3 z M 820,459.5 c 0.1,0.3 0.2,0.6 0.4,0.8 -0.2,-0.2 -0.3,-0.5 -0.4,-0.8 z m 11.5,34.4 c 0.1,0.3 0.2,0.7 0.3,1 -0.1,-0.3 -0.2,-0.6 -0.3,-1 z M 817.1,453 c 0.2,0.4 0.4,0.9 0.6,1.3 -0.2,-0.4 -0.4,-0.9 -0.6,-1.3 z m 8.1,19.8 c 0.1,0.4 0.3,0.8 0.4,1.2 -0.1,-0.3 -0.3,-0.7 -0.4,-1.2 z M 594.7,668 c 0,-0.1 -0.1,-0.1 -0.1,-0.2 0,0.1 0,0.2 0.1,0.2 z m 35.7,-11.5 c -0.3,0.2 -0.5,0.5 -0.8,0.7 0.2,-0.3 0.5,-0.5 0.8,-0.7 z M 829.7,487 c 0.1,0.4 0.2,0.7 0.3,1.1 -0.1,-0.3 -0.2,-0.7 -0.3,-1.1 z m -38.1,-76.2 0.9,1.2 z M 623.7,663.4 c -0.8,1 -1.6,2.2 -2.4,3.3 0.8,-1.2 1.6,-2.3 2.4,-3.3 z M 803.8,428.3 c 0.1,0.2 0.3,0.4 0.4,0.6 -0.1,-0.1 -0.2,-0.3 -0.4,-0.6 z m -182.5,238.5 -1.2,1.8 z M 799.9,422.2 c 0.3,0.5 0.6,1 1,1.4 -0.4,-0.4 -0.7,-0.9 -1,-1.4 z m -173.5,238 c -0.3,0.4 -0.7,0.7 -1,1.1 0.3,-0.3 0.7,-0.7 1,-1.1 z m -34.2,2 c -0.1,-0.2 -0.1,-0.3 -0.2,-0.5 0.1,0.2 0.2,0.3 0.2,0.5 z M 807.5,434.4 c 0.2,0.4 0.5,0.8 0.7,1.2 -0.2,-0.4 -0.5,-0.8 -0.7,-1.2 z m -194,247.9 c -0.2,0.4 -0.3,0.8 -0.5,1.3 0.2,-0.4 0.3,-0.8 0.5,-1.3 z M 814.4,447.2 Z m -3.7,-7 c 0.2,0.4 0.5,0.9 0.7,1.3 -0.2,-0.5 -0.5,-0.9 -0.7,-1.3 z M 624.9,662 c -0.4,0.4 -0.7,0.9 -1.1,1.3 0.4,-0.5 0.7,-0.9 1.1,-1.3 z m -17,25.7 -0.2,-0.2 z m 91.7,14.8 c -0.1,-0.1 -0.2,-0.2 -0.2,-0.3 0,0.2 0.1,0.2 0.2,0.3 z M 632.2,655 c -0.2,0.2 -0.4,0.3 -0.6,0.5 0.2,-0.1 0.4,-0.3 0.6,-0.5 z m -5,4.4 1.4,-1.4 z m -16.5,31 c -0.5,-0.4 -1,-0.9 -1.5,-1.4 0.5,0.5 1,0.9 1.5,1.4 z M 846,571.5 l -5.4,-3.8 8.2,5.7 z m -230.9,107 c -0.3,0.6 -0.5,1.2 -0.8,1.8 0.3,-0.6 0.5,-1.2 0.8,-1.8 z m 83.1,22.6 z M 590,655.7 c -0.1,-0.3 -0.2,-0.5 -0.2,-0.8 0.1,0.2 0.2,0.5 0.2,0.8 z m 26.7,19.2 c 1.1,-2.2 2.2,-4.2 3.3,-6.2 -1.7,2.9 -3.4,6 -4.9,9.5 0.5,-1.1 1.1,-2.2 1.6,-3.3 z M 787.4,405.7 c 0.4,0.5 0.7,0.9 1.1,1.4 -0.3,-0.5 -0.7,-1 -1.1,-1.4 z M 591.1,659 c -0.1,-0.2 -0.2,-0.4 -0.2,-0.7 0.1,0.3 0.1,0.5 0.2,0.7 z m 247,-130 z m 1.8,19.9 c 0,0.7 0.1,1.3 0.1,2 0,-0.6 -0.1,-1.3 -0.1,-2 z M 634.6,653.5 c -0.2,0.1 -0.4,0.2 -0.6,0.4 0.2,-0.2 0.4,-0.3 0.6,-0.4 z m 201.3,-139.1 0.3,1.5 z M 612,686.3 c -0.1,0.2 -0.2,0.5 -0.2,0.7 0.1,-0.2 0.2,-0.5 0.2,-0.7 z M 837,521.2 c 0.1,0.4 0.1,0.7 0.2,1.1 -0.1,-0.3 -0.1,-0.7 -0.2,-1.1 z m 2.4,20.8 c 0.1,0.7 0.1,1.5 0.2,2.2 -0.1,-0.7 -0.2,-1.4 -0.2,-2.2 z M 796.2,417 c 0.2,0.3 0.4,0.6 0.7,0.9 -0.2,-0.2 -0.4,-0.6 -0.7,-0.9 z M 595.9,670.7 Z m 40.7,-18.4 -0.6,0.3 z M 838.8,535.4 c 0.1,0.6 0.1,1.2 0.2,1.9 -0.1,-0.6 -0.1,-1.3 -0.2,-1.9 z"
       fill="#ffffff"
       id="path1" />
    <path
       d="m 822.6,644.9 14.4,6.4 c 12.4,5.5 21.5,18.3 27.9,39.1 8,-7.1 16.9,-19.1 21.9,-39.2 10.7,-42.6 -37.6,-77.4 -38.1,-77.8 l -8.2,-5.7 -0.3,-10 c -0.1,-2.3 -0.2,-4.5 -0.3,-6.7 0,-0.7 -0.1,-1.4 -0.1,-2 -0.1,-1.6 -0.2,-3.1 -0.3,-4.7 -0.1,-0.7 -0.1,-1.5 -0.2,-2.2 -0.1,-1.6 -0.3,-3.2 -0.4,-4.7 -0.1,-0.6 -0.1,-1.2 -0.2,-1.9 -0.2,-2.2 -0.5,-4.3 -0.7,-6.4 l -0.9,-6.6 c -0.1,-0.4 -0.1,-0.7 -0.2,-1.1 -0.3,-1.8 -0.5,-3.6 -0.8,-5.3 l -0.3,-1.5 -0.9,-5.1 c -0.1,-0.4 -0.2,-0.9 -0.3,-1.3 -0.4,-2.1 -0.8,-4.1 -1.3,-6.2 -0.5,-2.3 -1.1,-4.6 -1.6,-6.9 -0.1,-0.3 -0.2,-0.7 -0.3,-1 -0.5,-2 -1,-3.9 -1.6,-5.8 -0.1,-0.4 -0.2,-0.7 -0.3,-1.1 -1.3,-4.4 -2.6,-8.7 -4.1,-12.9 -0.1,-0.4 -0.3,-0.8 -0.4,-1.2 -0.7,-1.9 -1.3,-3.7 -2,-5.5 -0.1,-0.3 -0.2,-0.5 -0.3,-0.8 -0.8,-2.1 -1.6,-4.1 -2.5,-6.2 -0.1,-0.3 -0.2,-0.6 -0.4,-0.8 -0.7,-1.7 -1.5,-3.5 -2.3,-5.2 -0.2,-0.4 -0.4,-0.9 -0.6,-1.3 -0.9,-1.9 -1.8,-3.9 -2.7,-5.8 -1,-1.9 -2,-3.9 -3,-5.8 -0.2,-0.4 -0.5,-0.9 -0.7,-1.3 -0.8,-1.5 -1.7,-3 -2.5,-4.5 -0.2,-0.4 -0.5,-0.8 -0.7,-1.2 -1.1,-1.8 -2.1,-3.6 -3.3,-5.4 -0.1,-0.2 -0.3,-0.4 -0.4,-0.6 -1,-1.6 -2,-3.1 -3,-4.7 -0.3,-0.5 -0.6,-1 -1,-1.4 -1,-1.4 -2,-2.9 -3,-4.3 -0.2,-0.3 -0.4,-0.6 -0.7,-0.9 -1.2,-1.7 -2.4,-3.3 -3.7,-5 l -0.9,-1.2 c -1,-1.3 -2,-2.6 -3,-3.8 -0.4,-0.5 -0.7,-0.9 -1.1,-1.4 -1.3,-1.6 -2.7,-3.2 -4,-4.8 -17.8,-20.3 -35.6,-32.4 -45.6,-38.2 -9.9,5.8 -27.7,17.9 -45.6,38.2 -35.6,40.6 -54.8,93.3 -56.9,156.8 l -0.3,10 -8.2,5.7 c -0.4,0.3 -48.8,35.1 -38,77.7 0.3,1.3 0.7,2.5 1,3.7 0.1,0.3 0.2,0.5 0.2,0.8 0.3,0.9 0.5,1.8 0.8,2.7 0.1,0.2 0.2,0.4 0.2,0.7 l 0.9,2.7 c 0.1,0.2 0.1,0.3 0.2,0.5 0.3,0.9 0.7,1.8 1,2.7 0,0.1 0.1,0.2 0.1,0.3 l 1.2,2.7 c 0,0.1 0.1,0.1 0.1,0.2 0.4,0.9 0.8,1.8 1.3,2.7 0.9,1.8 1.9,3.5 2.8,5.1 2.9,4.7 5.9,8.5 8.9,11.6 l 0.2,0.2 1.3,1.3 c 0.5,0.5 1,0.9 1.5,1.4 0.4,-1.1 0.7,-2.3 1.1,-3.4 0.1,-0.2 0.2,-0.5 0.2,-0.7 0.3,-0.9 0.6,-1.8 1,-2.7 0.2,-0.4 0.3,-0.9 0.5,-1.3 0.3,-0.7 0.5,-1.4 0.8,-2.1 0.2,-0.6 0.5,-1.2 0.8,-1.8 0,-0.1 0.1,-0.1 0.1,-0.2 1.5,-3.5 3.2,-6.7 4.9,-9.5 l 0.1,-0.1 1.2,-1.8 0.1,-0.1 c 0.8,-1.2 1.6,-2.3 2.4,-3.3 l 0.1,-0.1 c 0.3,-0.4 0.7,-0.9 1.1,-1.3 0.2,-0.2 0.4,-0.4 0.5,-0.6 0.3,-0.4 0.7,-0.8 1,-1.1 l 0.8,-0.8 c 0.5,-0.5 0.9,-1 1.4,-1.4 0.3,-0.3 0.6,-0.6 1,-0.9 0.3,-0.2 0.5,-0.5 0.8,-0.7 l 1.2,-0.9 c 0.2,-0.2 0.4,-0.3 0.6,-0.5 l 1.8,-1.2 c 0.2,-0.1 0.4,-0.2 0.6,-0.4 l 1.5,-0.9 0.6,-0.3 c 0.7,-0.4 1.3,-0.7 2,-1 l 14.4,-6.4 9.6,12.5 c 1.9,2.4 3.8,4.9 5.8,7.4 9.5,12.1 19.7,24.7 27.1,33.2 1,1.1 1.9,2.1 2.7,3.1 0.4,0.4 0.7,0.8 1.1,1.2 0.1,0.1 0.2,0.2 0.2,0.3 0.4,0.4 0.7,0.8 1,1.1 H 775 c 8.3,-8.8 24.7,-29 38,-46.3 z m -87.1,-87.6 c -31.2,0 -56.5,-25.4 -56.5,-56.5 0,-31.2 25.4,-56.5 56.5,-56.5 31.1,0 56.5,25.4 56.5,56.5 0,31.1 -25.3,56.5 -56.5,56.5 z"
       fill="#c0bfbc"
       id="path2" />
    <path
       d="m 663.8,372.7 c 32.5,-36.3 64.8,-50.4 66.1,-51 l 7.9,-3.4 7.9,3.4 c 1.4,0.6 33.7,14.7 66.1,51 11,12.3 22.9,28.1 33.6,47.9 C 843.2,284.3 731.5,174 594.6,174 c -100.8,0 -191,60 -230.4,151.3 8.5,3 16.7,6.6 24.7,10.7 27.4,14.2 51.5,34.8 69.8,59.7 6.5,8.9 4.6,21.4 -4.3,28 -8.9,6.5 -21.4,4.6 -28,-4.3 -30.3,-41.2 -78.9,-65.8 -129.9,-65.8 -88.9,0 -161.1,72.3 -161.1,161.1 0,88.9 72.3,161.1 161.1,161.1 h 258.1 c -1.7,-4.7 -3.3,-9.6 -4.6,-15 -14.1,-55.9 27.5,-98.4 45.8,-113.9 5.1,-86.6 39.5,-142.4 68,-174.2 z m -151,-109.2 c -33,18.9 -49.4,44.6 -49.6,44.9 -1.9,3 -5.2,4.7 -8.5,4.7 -1.8,0 -3.7,-0.5 -5.3,-1.5 -4.7,-2.9 -6.1,-9.1 -3.1,-13.8 0.8,-1.2 19.3,-30.2 56.6,-51.6 34.4,-19.7 91.8,-36.4 170,-4.1 5.1,2.1 7.5,8 5.4,13.1 -2.1,5.1 -8,7.5 -13.1,5.4 -56.7,-23.5 -108,-22.5 -152.4,2.9 z"
       fill="#ffffff"
       id="path3" />
    <path
       d="m 646.5,711.3 c 2.3,-0.4 4.6,-0.8 6.8,-1.3 -1.7,-2 -3.3,-4 -4.9,-6 -0.7,2.3 -1.4,4.8 -1.9,7.3 z"
       fill="#99222e"
       id="path4" />
    <path
       d="m 827.3,704 c 1.7,5.8 3.1,12.4 4,18.5 l 2.7,20.6 20.5,-3.5 c 2.2,-0.4 53.9,-9.9 71.2,-78.7 14.1,-55.9 -27.5,-98.4 -45.8,-113.9 -0.9,-15.2 -2.7,-29.4 -5.2,-42.8 7.2,-25.5 10.9,-52.1 10.9,-79.3 0,-77.7 -30.3,-150.8 -85.2,-205.7 -55,-55 -128,-85.2 -205.7,-85.2 -119.1,0 -225.5,72.3 -269.7,181.6 -9.4,-1.3 -18.9,-2 -28.3,-2 -110.9,0 -201.1,90.2 -201.1,201.1 0,110.9 90.2,201.1 201.1,201.1 h 283 c 19.6,19.6 40.3,23.5 41.7,23.7 l 20.4,3.4 2.7,-20.5 c 0.5,-3.7 1.2,-7.5 2.1,-11.2 0.6,-2.5 1.2,-5 1.9,-7.3 1.6,2 3.3,4 4.9,6 10.5,12.8 21.4,25.2 27.6,29.8 l 5.3,3.9 h 103.3 l 5.3,-3.9 c 7,-5.2 20.5,-21.1 32.4,-35.7 z M 550,660.9 c 1.3,5.3 2.9,10.3 4.6,15 H 296.5 c -88.9,0 -161.1,-72.3 -161.1,-161.1 0,-88.9 72.3,-161.1 161.1,-161.1 51.1,0 99.6,24.6 129.9,65.8 6.5,8.9 19.1,10.8 28,4.3 8.9,-6.5 10.8,-19.1 4.3,-28 -18.3,-24.9 -42.4,-45.5 -69.8,-59.7 -8,-4.1 -16.2,-7.7 -24.7,-10.7 C 403.6,234 493.8,174 594.6,174 c 136.9,0 248.6,110.3 250.9,246.7 -10.7,-19.8 -22.6,-35.7 -33.6,-47.9 -32.5,-36.3 -64.8,-50.4 -66.1,-51 l -7.9,-3.4 -7.9,3.4 c -1.4,0.6 -33.7,14.7 -66.1,51 -28.5,31.8 -62.9,87.6 -68,174.3 -18.4,15.4 -60,57.9 -45.9,113.8 z m 225,42.8 h -74.4 c -0.3,-0.4 -0.7,-0.7 -1,-1.1 -0.1,-0.1 -0.2,-0.2 -0.2,-0.3 -0.4,-0.4 -0.7,-0.8 -1.1,-1.2 -8.8,-9.8 -23.5,-27.9 -35.6,-43.7 l -9.6,-12.5 -14.4,6.4 c -0.7,0.3 -1.4,0.6 -2,1 l -0.6,0.3 -1.5,0.9 c -0.2,0.1 -0.4,0.2 -0.6,0.4 l -1.8,1.2 c -0.2,0.2 -0.4,0.3 -0.6,0.5 l -1.2,0.9 c -0.3,0.2 -0.5,0.5 -0.8,0.7 -0.3,0.3 -0.6,0.6 -1,0.9 -0.5,0.5 -1,0.9 -1.4,1.4 l -0.8,0.8 c -0.3,0.4 -0.7,0.7 -1,1.1 -0.2,0.2 -0.4,0.4 -0.5,0.6 -0.4,0.4 -0.7,0.9 -1.1,1.3 l -0.1,0.1 -2.4,3.3 -0.1,0.1 -1.2,1.8 -0.1,0.1 c -1.2,1.9 -2.3,4 -3.3,6.2 -0.5,1.1 -1,2.2 -1.6,3.4 0,0.1 -0.1,0.1 -0.1,0.2 -0.3,0.6 -0.5,1.2 -0.8,1.8 -0.3,0.7 -0.6,1.4 -0.8,2.1 -0.2,0.4 -0.3,0.8 -0.5,1.3 -0.3,0.9 -0.7,1.8 -1,2.7 -0.1,0.2 -0.2,0.5 -0.2,0.7 -0.4,1.1 -0.7,2.2 -1.1,3.4 -0.5,-0.4 -1,-0.9 -1.5,-1.4 l -1.3,-1.3 -0.2,-0.2 c -4,-4.1 -8.2,-9.6 -11.8,-16.8 -0.4,-0.9 -0.9,-1.8 -1.3,-2.7 0,-0.1 -0.1,-0.1 -0.1,-0.2 l -1.2,-2.7 c 0,-0.1 -0.1,-0.2 -0.1,-0.3 -0.4,-0.9 -0.7,-1.8 -1,-2.7 -0.1,-0.2 -0.1,-0.3 -0.2,-0.5 l -0.9,-2.7 c -0.1,-0.2 -0.2,-0.4 -0.2,-0.7 -0.3,-0.9 -0.6,-1.8 -0.8,-2.7 -0.1,-0.3 -0.2,-0.5 -0.2,-0.8 -0.3,-1.2 -0.7,-2.4 -1,-3.7 -10.7,-42.6 37.6,-77.4 38,-77.7 l 8.2,-5.7 0.3,-10 c 2.1,-63.5 21.2,-116.2 56.9,-156.8 17.9,-20.3 35.7,-32.4 45.6,-38.2 9.9,5.8 27.7,17.9 45.6,38.2 1.4,1.6 2.7,3.2 4,4.8 0.4,0.5 0.7,0.9 1.1,1.4 1,1.3 2,2.5 3,3.8 l 0.9,1.2 c 1.3,1.6 2.5,3.3 3.7,5 0.2,0.3 0.4,0.6 0.7,0.9 1,1.4 2,2.8 3,4.3 0.3,0.5 0.6,1 1,1.4 1,1.5 2,3.1 3,4.7 0.1,0.2 0.3,0.4 0.4,0.6 l 3.3,5.4 c 0.2,0.4 0.5,0.8 0.7,1.2 0.9,1.5 1.7,3 2.5,4.5 0.2,0.4 0.5,0.9 0.7,1.3 1,1.9 2,3.8 3,5.8 0.9,1.9 1.9,3.8 2.7,5.8 0.2,0.4 0.4,0.9 0.6,1.3 0.8,1.7 1.5,3.4 2.3,5.2 0.1,0.3 0.2,0.6 0.4,0.8 0.9,2 1.7,4.1 2.5,6.2 0.1,0.3 0.2,0.5 0.3,0.8 0.7,1.8 1.4,3.7 2,5.5 0.1,0.4 0.3,0.8 0.4,1.2 1.5,4.2 2.8,8.6 4.1,12.9 0.1,0.4 0.2,0.7 0.3,1.1 0.5,1.9 1.1,3.9 1.6,5.8 0.1,0.3 0.2,0.7 0.3,1 1.1,4.3 2.1,8.7 2.9,13.1 0.1,0.4 0.2,0.9 0.3,1.3 l 0.9,5.1 0.3,1.5 c 0.3,1.8 0.6,3.5 0.8,5.3 0.1,0.4 0.1,0.7 0.2,1.1 l 0.9,6.6 c 0.3,2.1 0.5,4.3 0.7,6.4 0.1,0.6 0.1,1.2 0.2,1.9 0.1,1.6 0.3,3.1 0.4,4.7 0.1,0.7 0.1,1.5 0.2,2.2 0.1,1.6 0.2,3.1 0.3,4.7 0,0.7 0.1,1.3 0.1,2 0.1,2.2 0.2,4.5 0.3,6.7 l 0.3,10 5.5,3.8 2.7,1.9 c 0.5,0.3 48.8,35.1 38.1,77.8 C 881.8,671 873,683 865,690.1 858.6,669.3 849.4,656.5 837.1,651 l -14.4,-6.4 -9.6,12.5 c -13.3,17.6 -29.8,37.8 -38.1,46.6 z"
       fill="#99222e"
       id="path5" />
    <path
       d="m 613,683.6 c -0.3,0.9 -0.7,1.8 -1,2.7 0.4,-0.9 0.7,-1.8 1,-2.7 z m 1.3,-3.3 c -0.3,0.7 -0.6,1.4 -0.8,2.1 0.3,-0.8 0.5,-1.5 0.8,-2.1 z m -2.5,6.7 c -0.4,1.1 -0.7,2.2 -1.1,3.4 0.4,-1.2 0.7,-2.3 1.1,-3.4 z m 87.5,15.3 c -0.4,-0.4 -0.7,-0.8 -1.1,-1.2 0.4,0.4 0.8,0.8 1.1,1.2 z M 634,653.8 632.2,655 Z m -2.5,1.7 -1.2,0.9 c 0.5,-0.3 0.9,-0.6 1.2,-0.9 z m -1.9,1.6 c -0.3,0.3 -0.6,0.6 -1,0.9 0.3,-0.3 0.7,-0.6 1,-0.9 z m 6.4,-4.5 -1.5,0.9 z m 2.6,-1.3 c -0.7,0.3 -1.4,0.6 -2,1 0.7,-0.4 1.4,-0.7 2,-1 z m 62,52.4 c -0.3,-0.4 -0.7,-0.7 -1,-1.1 0.3,0.3 0.7,0.7 1,1.1 z m -85.5,-25.4 c 0,0.1 -0.1,0.1 -0.1,0.2 0.1,-0.1 0.1,-0.1 0.1,-0.2 z m 12.1,-18.9 -0.8,0.8 z m -5.8,7.3 -0.1,0.1 c 0,0 0,-0.1 0.1,-0.1 z m -1.3,1.9 -0.1,0.1 c 0.1,0 0.1,0 0.1,-0.1 z m 3.7,-5.3 -0.1,0.1 z m 1.6,-2 c -0.2,0.2 -0.4,0.4 -0.5,0.6 0.2,-0.1 0.3,-0.4 0.5,-0.6 z m 192.3,-207 c 0.8,1.7 1.5,3.4 2.3,5.2 -0.7,-1.7 -1.5,-3.5 -2.3,-5.2 z m -3.3,-7.1 c 0.9,1.9 1.9,3.8 2.7,5.8 -0.9,-1.9 -1.8,-3.9 -2.7,-5.8 z m 15.6,40.9 c 0.5,1.9 1.1,3.9 1.6,5.8 -0.6,-1.9 -1.1,-3.8 -1.6,-5.8 z m 6.2,27.8 c 0.3,1.8 0.6,3.5 0.8,5.3 -0.2,-1.7 -0.5,-3.5 -0.8,-5.3 z m -13.1,-48.6 z m 2.5,6.8 c 1.5,4.2 2.8,8.6 4.1,12.9 -1.3,-4.4 -2.6,-8.7 -4.1,-12.9 z m -5.2,-13.8 c 0.9,2 1.7,4.1 2.5,6.2 -0.9,-2 -1.7,-4.1 -2.5,-6.2 z m 16.8,62.1 0.9,6.6 z m -2.2,-13.1 0.9,5.1 z M 595.9,670.7 c 3.6,7.1 7.7,12.6 11.8,16.8 -3,-3.1 -6.1,-6.9 -8.9,-11.6 -1,-1.6 -1.9,-3.3 -2.9,-5.2 z"
       fill="#99222e"
       id="path6" />
    <path
       d="m 668.4,664.8 c -2,-2.5 -3.9,-5 -5.8,-7.4 12.1,15.7 26.8,33.9 35.6,43.7 -0.9,-0.9 -1.8,-2 -2.7,-3.1 -7.4,-8.5 -17.6,-21 -27.1,-33.2 z M 834.7,508 c -0.9,-4.4 -1.9,-8.8 -2.9,-13.1 0.6,2.3 1.1,4.6 1.6,6.9 0.5,2.1 0.9,4.2 1.3,6.2 z m 4.3,29.3 c 0.1,1.6 0.3,3.1 0.4,4.7 -0.1,-1.6 -0.3,-3.1 -0.4,-4.7 z m -0.9,-8.3 c 0.3,2.1 0.5,4.3 0.7,6.4 -0.2,-2.1 -0.5,-4.3 -0.7,-6.4 z m 1.5,15.2 c 0.1,1.6 0.2,3.1 0.3,4.7 -0.1,-1.5 -0.2,-3.1 -0.3,-4.7 z m 0.4,6.8 c 0.1,2.2 0.2,4.5 0.3,6.7 -0.1,-2.3 -0.2,-4.5 -0.3,-6.7 z M 590.9,658.4 c -0.3,-0.9 -0.6,-1.8 -0.8,-2.7 0.2,0.9 0.5,1.8 0.8,2.7 z m 1.1,3.3 -0.9,-2.7 c 0.3,1 0.6,1.9 0.9,2.7 z m 17.2,27.3 -1.3,-1.3 z m -19.4,-34.1 c -0.3,-1.2 -0.7,-2.4 -1,-3.7 0.3,1.2 0.6,2.5 1,3.7 z m 6.1,15.8 c -0.4,-0.9 -0.9,-1.8 -1.3,-2.7 0.5,1 0.9,1.8 1.3,2.7 z M 783.4,400.9 c 1.4,1.6 2.7,3.2 4,4.8 -1.3,-1.6 -2.6,-3.2 -4,-4.8 z m -190.1,264 c -0.4,-0.9 -0.7,-1.8 -1,-2.7 0.3,0.9 0.6,1.8 1,2.7 z m 1.3,3 -1.2,-2.7 z M 788.6,407 c 1,1.3 2,2.5 3,3.8 -1,-1.2 -2,-2.5 -3,-3.8 z m 15.6,22 3.3,5.4 z m -3.4,-5.3 c 1,1.5 2,3.1 3,4.7 -1,-1.6 -2,-3.2 -3,-4.7 z m 7.4,12 c 0.9,1.5 1.7,3 2.5,4.5 -0.8,-1.6 -1.6,-3.1 -2.5,-4.5 z m 3.2,5.8 z M 792.5,412 c 1.3,1.6 2.5,3.3 3.7,5 -1.2,-1.6 -2.4,-3.3 -3.7,-5 z m 4.4,6 c 1,1.4 2,2.8 3,4.3 -1,-1.5 -2,-2.9 -3,-4.3 z"
       fill="#99222e"
       id="path7" />
    <path
       d="m 735.5,464.2 c -20.1,0 -36.5,16.4 -36.5,36.5 0,20.1 16.4,36.5 36.5,36.5 20.1,0 36.5,-16.4 36.5,-36.5 0,-20.1 -16.4,-36.5 -36.5,-36.5 z"
       fill="#ffffff"
       id="path8" />
    <path
       d="m 735.5,444.2 c -31.2,0 -56.5,25.4 -56.5,56.5 0,31.2 25.4,56.5 56.5,56.5 31.1,0 56.5,-25.4 56.5,-56.5 0,-31.1 -25.3,-56.5 -56.5,-56.5 z m 0,93.1 c -20.1,0 -36.5,-16.4 -36.5,-36.5 0,-20.1 16.4,-36.5 36.5,-36.5 20.1,0 36.5,16.4 36.5,36.5 0,20.1 -16.4,36.5 -36.5,36.5 z M 709,762.9 c -5.5,0 -10,4.5 -10,10 v 99.4 c 0,5.5 4.5,10 10,10 5.5,0 10,-4.5 10,-10 v -99.4 c 0,-5.5 -4.5,-10 -10,-10 z"
       fill="#670e1d"
       id="path9" />
    <path
       d="m 770.6,752.9 c -11,0 -20,9 -20,20 v 28.8 c 0,11 9,20 20,20 11,0 20,-9 20,-20 v -28.8 c 0,-11.1 -9,-20 -20,-20 z M 678.3,255.1 c 2.1,-5.1 -0.3,-11 -5.4,-13.1 -78.2,-32.3 -135.6,-15.6 -170,4.1 -37.3,21.4 -55.8,50.4 -56.6,51.6 -2.9,4.7 -1.5,10.8 3.1,13.8 1.7,1 3.5,1.5 5.3,1.5 3.3,0 6.6,-1.7 8.5,-4.7 0.2,-0.3 16.6,-26 49.6,-44.9 44.3,-25.4 95.6,-26.4 152.4,-3 5.1,2.3 11,-0.2 13.1,-5.3 z"
       fill="#99222e"
       id="path10" />
  </g>
  <path
     style="fill:#670e1d;stroke:#670e1d;stroke-width:0.000402926"
     d="m 109.39146,79.780785 c -0.72488,-0.22258 -1.56647,-1.0736 -1.82175,-1.842165 -0.2582,-0.777386 -0.17944,-1.7255 0.20148,-2.425375 1.24441,-2.286402 6.05426,-7.564965 9.54531,-10.475499 8.30863,-6.927017 17.86779,-10.991744 28.4691,-12.105567 2.3252,-0.244297 6.45703,-0.32333 8.90171,-0.17027 4.32624,0.270863 8.6015,0.97958 13.0061,2.15604 3.51022,0.937572 9.50694,3.085622 10.38026,3.71825 0.7473,0.541346 1.18664,1.427489 1.18664,2.393445 0,1.151705 -0.56912,2.093432 -1.61416,2.670943 -0.48483,0.267927 -0.68423,0.314884 -1.31754,0.310275 -0.64637,-0.0047 -0.92828,-0.07947 -2.10625,-0.558575 -3.2315,-1.314321 -7.08915,-2.534819 -10.52672,-3.330482 -7.52351,-1.741398 -15.05923,-1.943833 -21.73644,-0.583917 -8.89417,1.811435 -17.21261,6.31377 -23.83718,12.901829 -1.85595,1.845717 -3.18362,3.366644 -4.38033,5.01796 -1.13787,1.570125 -1.66554,2.083735 -2.37672,2.313422 -0.68626,0.221639 -1.27385,0.224523 -1.97351,0.0097 z"
     id="path11"
     transform="scale(4)" />
</svg>
